<?xml version="1.0" encoding="iso-8859-1"?>
<!-- Generator: Adobe Illustrator 16.0.0, SVG Export Plug-In . SVG Version: 6.00 Build 0)  -->
<!DOCTYPE svg PUBLIC "-//W3C//DTD SVG 1.1//EN" "http://www.w3.org/Graphics/SVG/1.1/DTD/svg11.dtd">
<svg version="1.1" id="Capa_1" xmlns="http://www.w3.org/2000/svg" xmlns:xlink="http://www.w3.org/1999/xlink" x="0px" y="0px"
	 width="65.403px" height="65.403px" viewBox="0 0 65.403 65.403" style="enable-background:new 0 0 65.403 65.403;" fill='#007bff'
	 xml:space="preserve">
<g>
	<g>
		<path d="M12.665,30.927v13.81c0,2.771,8.975,7.014,20.037,7.014c11.063,0,20.037-4.242,20.037-7.014v-13.81l-20.037,7.158
			L12.665,30.927z"/>
		<path d="M11.073,48.842v-21.38H8.737v21.38c-0.69,0.406-1.168,1.122-1.168,1.98c0,1.291,1.043,2.335,2.336,2.335
			c1.291,0,2.335-1.044,2.335-2.335C12.24,49.964,11.759,49.249,11.073,48.842z"/>
		<path d="M30.424,23.125c0.336-0.948,1.215-1.637,2.275-1.637c1.348,0,2.436,1.09,2.436,2.437c0,1.344-1.088,2.436-2.436,2.436
			c-0.769,0-1.424-0.379-1.874-0.936l-18.609,2.866l20.485,7.312l32.701-11.679L32.702,12.245L0,23.924l7.594,2.711L30.424,23.125z"
			/>
	</g>
</g>
<g>
</g>
<g>
</g>
<g>
</g>
<g>
</g>
<g>
</g>
<g>
</g>
<g>
</g>
<g>
</g>
<g>
</g>
<g>
</g>
<g>
</g>
<g>
</g>
<g>
</g>
<g>
</g>
<g>
</g>
</svg>
