<?xml version="1.0" encoding="UTF-8"?>
<svg width="543px" height="514px" viewBox="0 0 543 514" version="1.1" xmlns="http://www.w3.org/2000/svg" xmlns:xlink="http://www.w3.org/1999/xlink">
    <!-- Generator: Sketch 64 (93537) - https://sketch.com -->
    <title>Group 8</title>
    <desc>Created with Sketch.</desc>
    <g id="Page-1" stroke="none" stroke-width="1" fill="none" fill-rule="evenodd">
        <g id="Group-8" fill-rule="nonzero">
            <g id="001-man">
                <path d="M337.066667,453.056 L337.066667,494.933333 C337.066667,499.648 333.248,503.466667 328.533333,503.466667 L17.0666667,503.466667 C12.352,503.466667 8.53333333,499.648 8.53333333,494.933333 L8.53333333,453.056 C8.53333333,409.290667 43.8933333,373.109333 87.6586667,373.514667 C112.317867,373.719467 132.266667,353.892267 132.266667,329.418667 L132.266667,322.133333 L132.426667,321.738667 C94.1333333,305.888 67.2,268.16 67.2,224.138667 L67.2,220.8 C51.9946667,220.8 40.5333333,208.784 40.5333333,194.624 L40.5333333,90.6666667 C40.5333333,74.7626667 53.4293333,61.8666667 69.3333333,61.8666667 C82.2122667,29.6704 113.4112,8.53333333 148.106667,8.53333333 L221.290667,8.53333333 C268.149333,8.53333333 306.133333,46.5173333 306.133333,93.376 L306.133333,193.066667 C306.133333,208.384 293.717333,220.8 278.4,220.8 L278.4,224.138667 C278.4,268.16 251.466667,305.888 213.173333,321.738667 L213.333333,322.133333 L213.333333,329.418667 C213.333333,353.879467 233.2704,373.719467 257.941333,373.514667 C301.706667,373.109333 337.066667,409.290667 337.066667,453.056 Z" id="Path" fill="#D1E7FF"></path>
                <path d="M337.066667,453.056 L337.066667,494.933333 C337.066667,499.645867 333.245867,503.466667 328.533333,503.466667 L17.0666667,503.466667 C12.3541333,503.466667 8.53333333,499.645867 8.53333333,494.933333 L8.53333333,453.056 C8.53333333,409.2896 43.8912,373.1072 87.6565333,373.512533 C94.0704,373.572267 100.189867,372.2656 105.706667,369.866667 L105.706667,369.877333 C118.580267,399.146667 149.210667,416.945067 181.333333,413.173333 C206.901333,410.176 229.365333,393.813333 239.893333,369.877333 L239.893333,369.866667 C245.4112,372.2656 251.530667,373.572267 257.943467,373.512533 C301.7088,373.1072 337.066667,409.2896 337.066667,453.056 Z" id="Path" fill="#D1E7FF"></path>
                <path d="M306.133333,93.376 L306.133333,193.066667 C306.133333,208.384 293.717333,220.8 278.4,220.8 C278.4,209.28 278.4,180.96 278.4,154.912 C278.4,126.634667 255.477333,103.712 227.2,103.712 L118.4,103.712 C90.1226667,103.712 67.2,126.634667 67.2,154.912 L67.2,220.8 C51.9946667,220.8 40.5333333,208.784 40.5333333,194.624 L40.5333333,90.6666667 C40.5333333,74.7626667 53.4293333,61.8666667 69.3333333,61.8666667 C82.2112,29.6704 113.4112,8.53333333 148.106667,8.53333333 L221.290667,8.53333333 C268.149333,8.53333333 306.133333,46.5173333 306.133333,93.376 Z" id="Path" fill="#B9DCFF"></path>
                <path d="M278.4,224.138667 C278.4,268.16 251.466667,305.888 213.173333,321.738667 C144.090667,350.414933 67.2,299.568 67.2,224.138667 C67.2,216.9696 67.2,163.095467 67.2,154.912 C67.2,126.634667 90.1226667,103.712 118.4,103.712 L227.2,103.712 C255.477333,103.712 278.4,126.634667 278.4,154.912 L278.4,224.138667 Z" id="Path" fill="#D1E7FF"></path>
                <path d="M110.6432,379.210667 C116.730667,388.946133 111.437867,401.767467 100.321067,404.642133 C73.52,411.5744 38.4,429.613867 38.4,480.512 L38.4,503.466667 L17.0666667,503.466667 C12.3541333,503.466667 8.53333333,499.645867 8.53333333,494.933333 L8.53333333,453.056 C8.53333333,421.261867 27.2405333,393.316267 55.3386667,380.544 L55.3493333,380.544 C80.7562667,369.149867 87.9786667,377.261867 105.706667,369.877333 C107.1392,373.133867 108.791467,376.2496 110.6432,379.210667 L110.6432,379.210667 Z" id="Path" fill="#E8F3FF"></path>
                <path d="M234.6016,379.210667 C228.514133,388.946133 233.806933,401.767467 244.923733,404.642133 C271.7248,411.5744 306.8448,429.613867 306.8448,480.512 L306.8448,503.466667 L328.178133,503.466667 C332.890667,503.466667 336.711467,499.645867 336.711467,494.933333 L336.711467,453.056 C336.711467,421.261867 318.004267,393.316267 289.906133,380.544 L289.895467,380.544 C264.488533,369.149867 257.266133,377.261867 239.538133,369.877333 C238.1056,373.133867 236.453333,376.2496 234.6016,379.210667 L234.6016,379.210667 Z" id="Path" fill="#B9DCFF"></path>
                <path d="M148.8896,292.327467 C166.251733,303.189333 152.561067,329.8272 133.5552,322.1984 C94.4789333,306.514133 67.2,268.4352 67.2,224.138667 L67.2,154.912 C67.2,144.155733 70.5173333,134.173867 76.1834667,125.9328 C83.2842667,115.607467 99.2768,120.727467 99.2,133.258667 C99.1989333,133.52 99.1989333,202.544 99.1989333,202.805333 C99.2,241.749333 119.671467,274.048 148.8896,292.327467 L148.8896,292.327467 Z" id="Path" fill="#E8F3FF"></path>
                <path d="M214.538667,339.648 C188.2592,350.648533 159.3792,351.501867 131.061333,339.648 C132.507733,333.646933 132.266667,329.76 132.266667,322.133333 L132.426667,321.738667 C158.114133,332.401067 187.435733,332.4224 213.173333,321.738667 L213.333333,322.133333 C213.333333,329.7632 213.092267,333.649067 214.538667,339.648 Z" id="Path" fill="#B9DCFF"></path>
                <path d="M259.36,17.5317333 C270.891733,23.3312 266.654933,40.6026667 253.7472,40.5354667 C253.373867,40.5322667 180.48,40.5333333 180.106667,40.5333333 C147.518933,40.5333333 117.992533,59.184 103.8592,88.1674667 C102.247467,91.4730667 99.1328,93.7152 95.5306667,94.4522667 C82.4064,97.1381333 72.5333333,108.750933 72.5333333,122.666667 L72.5333333,132.138667 C69.12,138.997333 67.2,146.730667 67.2,154.912 L67.2,202.3744 C67.2,214.212267 51.872,219.136 45.1434667,209.396267 C42.2144,205.156267 40.5333333,200.048 40.5333333,194.624 L40.5333333,90.6666667 C40.5333333,74.7626667 53.4293333,61.8666667 69.3333333,61.8666667 C82.2122667,29.6704 113.4112,8.53333333 148.106667,8.53333333 L221.290667,8.53333333 C234.9792,8.53333333 247.911467,11.7738667 259.36,17.5317333 Z" id="Path" fill="#D1E7FF"></path>
                <path d="M345.6,453.0592 L345.6,503.466667 C345.6,508.1792 341.7792,512 337.066667,512 C332.354133,512 328.533333,508.1792 328.533333,503.466667 L328.533333,453.0592 C328.533333,413.8112 296.773333,382.049067 257.522133,382.050133 C238.951467,382.050133 222.100267,372.5888 212.446933,356.740267 C209.994667,352.715733 211.2704,347.464533 215.294933,345.013333 C219.3184,342.561067 224.5696,343.8368 227.021867,347.8624 C233.552,358.583467 244.954667,364.983467 257.522133,364.983467 C306.202667,364.981333 345.6,404.375467 345.6,453.0592 L345.6,453.0592 Z M226.5472,390.9152 C229.582933,394.520533 229.12,399.904 225.514667,402.938667 C212.948267,413.5168 197.5104,420.032 181.333333,421.7408 L181.333333,460.8 C181.333333,465.512533 177.512533,469.333333 172.8,469.333333 C168.087467,469.333333 164.266667,465.512533 164.266667,460.8 L164.266667,421.7568 C137.869867,418.993067 114.391467,403.536 101.4176,380.350933 C97.1146667,381.4656 92.6421333,382.049067 88.0789333,382.049067 C48.7413333,382.049067 17.0666667,413.888 17.0666667,453.058133 L17.0666667,503.466667 C17.0666667,508.1792 13.2458667,512 8.53333333,512 C3.8208,512 2.84217094e-14,508.1792 2.84217094e-14,503.466667 L2.84217094e-14,453.0592 C2.84217094e-14,404.3808 39.3909333,364.983467 88.0757333,364.983467 C107.765333,364.983467 123.733333,349.121067 123.733333,329.418667 L123.733333,327.1712 C86.4864,309.361067 60.3424,271.934933 58.7488,228.352 C43.4208,224.666667 32,210.9472 32,194.624 L32,90.6666667 C32,72.0522667 45.6949333,56.576 63.5370667,53.7824 C78.864,20.9386667 111.499733,-1.13686838e-13 148.1088,-1.13686838e-13 L221.2896,-1.13686838e-13 C272.7776,-1.13686838e-13 314.666667,41.8890667 314.666667,93.3770667 L314.666667,194.624 C314.666667,199.336533 310.845867,203.157333 306.133333,203.157333 C301.4208,203.157333 297.6,199.336533 297.6,194.624 L297.6,93.3770667 C297.6,51.2992 263.367467,17.0666667 221.2896,17.0666667 L148.1088,17.0666667 C116.724267,17.0666667 88.912,35.8954667 77.2565333,65.0357333 C75.9605333,68.2752 72.8224,70.4 69.3333333,70.4 C58.1578667,70.4 49.0666667,79.4912 49.0666667,90.6666667 L49.0666667,194.624 C49.0666667,201.3952 52.9664,207.28 58.6666667,210.235733 L58.6666667,154.9152 C58.6666667,121.978667 85.4634667,95.1818667 118.4,95.1818667 L227.2,95.1818667 C260.1376,95.1818667 286.933333,121.976533 286.933333,154.912 L286.933333,224.781867 C286.933333,298.994133 214.4128,355.3632 140.618667,333.6384 C139.291733,350.452267 130.177067,364.740267 117.0912,373.381333 C137.4272,407.732267 183.821867,415.725867 214.522667,389.8816 C218.125867,386.849067 223.5104,387.309867 226.5472,390.9152 L226.5472,390.9152 Z M172.8,321.2 C226.3232,321.2 269.866667,277.656533 269.866667,224.133333 L269.866667,154.912 C269.866667,131.387733 250.7264,112.248533 227.2,112.248533 L118.4,112.248533 C94.8736,112.248533 75.7333333,131.3888 75.7333333,154.9152 L75.7333333,224.133333 C75.7333333,277.656533 119.2768,321.2 172.8,321.2 Z" id="Shape" fill="#2E58FF"></path>
            </g>
            <g id="002-woman" transform="translate(219.000000, 34.000000)">
                <path d="M316.001,424.74 L316.001,464 C316.001,468.42 312.421,472 308.001,472 L16.001,472 C11.581,472 8.001,468.42 8.001,464 L8.001,424.74 C8.001,400.27 19.791,378.55 38.001,364.95 L38.001,107.5 C38.001,52.55 82.551,8 137.501,8 L187.501,8 C242.451,8 287.001,52.55 287.001,107.5 L287.001,365.72 C304.641,379.35 316.001,400.72 316.001,424.74 Z" id="Path" fill="#D1E7FF"></path>
                <path d="M316.001,424.74 L316.001,464 C316.001,468.42 312.421,472 308.001,472 L16.001,472 C11.581,472 8.001,468.42 8.001,464 L8.001,424.74 C8.001,383.603 41.345,350.17 82.571,350.17 C91.721,350.17 100.181,347.21 107.041,342.19 L108.841,353.84 L157.101,391.21 C159.991,393.44 164.011,393.44 166.901,391.21 L215.161,353.84 L216.961,342.19 C223.821,347.21 232.281,350.17 241.431,350.17 C282.511,350.17 316.001,383.474 316.001,424.74 L316.001,424.74 Z" id="Path" fill="#D1E7FF"></path>
                <path d="M215.161,353.84 L196.961,472 L127.041,472 L108.841,353.84 L157.103,391.208 C159.986,393.441 164.015,393.441 166.898,391.208 L215.161,353.84 Z" id="Path" fill="#E8F3FF"></path>
                <path d="M261.001,210.13 L261.001,160.817 C261.001,157.455 258.907,154.448 255.745,153.304 C238.344,147.011 223.653,134.887 214.209,118.69 C211.453,113.964 204.897,113.273 201.317,117.409 C168.357,155.492 122.918,180.667 70.049,187.097 C66.027,187.586 63.001,190.985 63.001,195.036 L63.001,210.128 C63.001,251.398 88.251,286.768 124.151,301.628 L124.001,301.998 L124.001,308.828 C124.001,331.724 105.396,350.168 82.571,350.168 C65.861,350.168 50.441,355.668 38.001,364.948 C38.001,356.965 38.001,99.921 38.001,107.498 C38.001,52.546 82.549,7.998 137.501,7.998 L187.501,7.998 C242.453,7.998 287.001,52.546 287.001,107.498 L287.001,365.718 C274.401,355.968 258.591,350.168 241.431,350.168 C218.631,350.168 200.001,331.748 200.001,308.828 L200.001,302 L199.851,301.63 C235.751,286.77 261.001,251.4 261.001,210.13 Z" id="Path" fill="#B9DCFF"></path>
                <path d="M255.744,153.305 C258.906,154.448 261,157.455 261,160.818 L261,210.131 C261,251.401 235.75,286.771 199.85,301.631 C134.933,328.578 63,280.707 63,210.131 L63,195.039 C63,190.987 66.026,187.589 70.048,187.1 C122.887,180.674 168.336,155.517 201.316,117.412 C204.896,113.275 211.452,113.967 214.208,118.693 C223.645,134.875 238.329,147.007 255.744,153.305 Z" id="Path" fill="#D1E7FF"></path>
                <path d="M201.131,318.42 C176.494,328.733 149.419,329.533 122.871,318.42 C124.227,312.794 124.001,309.15 124.001,302 L124.151,301.63 C148.233,311.626 175.722,311.646 199.851,301.63 L200.001,302 C200.001,309.153 199.775,312.796 201.131,318.42 Z" id="Path" fill="#B9DCFF"></path>
                <path d="M224.973,15.297 C237.161,20.256 233.123,38.35 219.968,38.03 C217.951,37.981 166.496,38 167.5,38 C112.548,38 68,82.548 68,137.5 L68,181.897 C68,189.188 63,189.386 63,195.04 C63,211.028 62.253,222.924 67.432,239.515 C67.798,240.687 68,241.905 68,243.133 L68,342.385 C68,347.51 64.748,352.13 59.866,353.691 C51.916,356.232 44.548,360.068 38,364.951 L38,107.5 C38,52.548 82.548,8 137.5,8 L187.5,8 C200.758,8 213.409,10.592 224.973,15.297 Z" id="Path" fill="#D1E7FF"></path>
                <path d="M139.991,273.393 C156.678,283.779 143.498,309.395 125.255,302.08 C88.225,287.233 63.001,251.292 63.001,210.129 L63.001,195.039 C63.001,190.994 66.014,187.589 70.03,187.102 C73.82,186.642 77.737,186.063 81.758,185.349 C87.537,184.322 92.974,188.452 93.48,194.3 C96.644,230.889 115.174,257.948 139.991,273.393 L139.991,273.393 Z" id="Path" fill="#E8F3FF"></path>
                <path d="M112.741,379.15 C65.851,380.354 37.001,415.659 37.001,453.74 L37.001,472 L16.001,472 C11.583,472 8.001,468.418 8.001,464 L8.001,424.74 C8.001,383.603 41.345,350.17 82.571,350.17 C91.721,350.17 100.181,347.21 107.041,342.19 C109.315,356.91 108.119,349.156 112.741,379.15 Z" id="Path" fill="#E8F3FF"></path>
                <path d="M211.261,379.15 C258.151,380.354 287.001,415.659 287.001,453.74 L287.001,472 L308.001,472 C312.419,472 316.001,468.418 316.001,464 L316.001,424.74 C316.001,383.603 282.657,350.17 241.431,350.17 C232.281,350.17 223.821,347.21 216.961,342.19 C214.686,356.91 215.882,349.156 211.261,379.15 Z" id="Path" fill="#B9DCFF"></path>
                <polygon id="Path" fill="#D1E7FF" points="147.041 472 127.041 472 108.841 353.84 131.551 371.42"></polygon>
                <path d="M324.001,424.743 L324.001,472 C324.001,476.418 320.419,480.001538 316.001,480.001538 C311.583,480.001538 308.001,476.418 308.001,472 L308.001,424.743 C308.001,387.949 278.226,358.171 241.428,358.172 C235.023,358.172 228.84,356.962 223.126,354.705 L204.866,473.219 C204.194,477.588 200.106,480.58 195.742,479.907 C191.375,479.234 188.381,475.149 189.054,470.782 L208.354,345.517 C204.837,342.341 201.726,338.641 199.17,334.444 C196.871,330.671 198.066,325.749 201.84,323.45 C205.612,321.15 210.535,322.347 212.834,326.12 C218.893,336.066 229.595,342.171 241.428,342.171 C287.064,342.171 324.001,379.101 324.001,424.743 L324.001,424.743 Z M191.861,371.883 C189.155,368.39 184.131,367.749 180.637,370.455 L162,384.883 L116.256,349.468 L115.645,345.505 C124.844,337.219 130.806,325.765 131.83,312.787 C200.126,332.893 268.449,281.64 268.996,210.963 C269.001,210.785 268.999,155.178 268.999,155 C268.999,152 267.276,149.141 264.448,147.79 C262.703,146.953 230.305,139.992 216.434,105.049 C214.152,99.297 206.422,98.189 202.638,103.148 C173.363,141.521 131.791,167.153 85.194,176.389 C80.86,177.248 78.044,181.458 78.902,185.792 C79.658,189.601 83.001,192.238 86.741,192.238 C88.751,192.238 156.097,182.282 207.325,122.766 C217.978,140.986 234.289,154.029 252.999,160.81 L252.999,210.126 C252.999,260.304 212.177,301.126 161.999,301.126 C115.035,301.126 70.999,264.623 70.999,207.001 C70.999,202.583 67.417,199.001 62.999,199.001 C58.581,199.001 54.999,202.583 54.999,207.001 C54.999,207.415 54.991,211.418 55.012,211.816 C55.664,253.641 80.436,289.72 115.999,306.724 L115.999,308.831 C115.999,317.744 112.523,326.118 106.212,332.412 C94.98,343.611 80.487,342.173 82.57,342.173 C69.67,342.173 57.231,345.132 45.999,350.692 L45.999,107.5 C45.999,57.047 87.046,16 137.499,16 L187.499,16 C237.952,16 278.999,57.047 278.999,107.5 L278.999,324 C278.999,328.418 282.581,332 286.999,332 C291.417,332 294.999,328.418 294.999,324 L294.999,107.5 C294.999,48.224 246.774,-5.68434189e-14 187.499,-5.68434189e-14 L137.499,-5.68434189e-14 C78.224,-5.68434189e-14 29.999,48.224 29.999,107.5 L29.999,361.07 C10.855,376.934 -0.001,399.962 -0.001,424.743 L-0.001,472 C-0.001,476.418 3.581,480 7.999,480 C12.417,480 15.999,476.418 15.999,472 L15.999,424.743 C15.999,406.961 22.924,390.243 35.498,377.669 C57.722,355.445 85.972,358.171 82.573,358.171 C88.943,358.171 95.125,356.966 100.871,354.683 L119.134,473.217 C119.742,477.171 123.15,480 127.03,480 C131.953,480 135.691,475.618 134.946,470.781 L119.795,372.442 L157.102,401.325 C159.991,403.561 164.019,403.554 166.897,401.325 L190.431,383.105 C193.925,380.401 194.565,375.376 191.861,371.883 L191.861,371.883 Z" id="Shape" fill="#2E58FF"></path>
            </g>
        </g>
    </g>
</svg>